<mxfile host="app.diagrams.net" agent="Mozilla/5.0 (X11; Linux x86_64) AppleWebKit/537.36 (KHTML, like Gecko) Chrome/128.0.0.0 Safari/537.36" version="24.7.12">
  <diagram name="Page-1" id="E54wuVknGLT7RMz8vLl0">
    <mxGraphModel dx="880" dy="378" grid="1" gridSize="10" guides="1" tooltips="1" connect="1" arrows="1" fold="1" page="1" pageScale="1" pageWidth="850" pageHeight="1100" math="0" shadow="0">
      <root>
        <mxCell id="0" />
        <mxCell id="1" parent="0" />
        <mxCell id="EAi1GCVLySvhZjh0Bgod-3" value="" style="edgeStyle=orthogonalEdgeStyle;rounded=0;orthogonalLoop=1;jettySize=auto;html=1;" edge="1" parent="1" source="EAi1GCVLySvhZjh0Bgod-1" target="EAi1GCVLySvhZjh0Bgod-2">
          <mxGeometry relative="1" as="geometry" />
        </mxCell>
        <mxCell id="EAi1GCVLySvhZjh0Bgod-1" value="Início" style="ellipse;whiteSpace=wrap;html=1;" vertex="1" parent="1">
          <mxGeometry x="70" y="30" width="120" height="80" as="geometry" />
        </mxCell>
        <mxCell id="EAi1GCVLySvhZjh0Bgod-5" value="" style="edgeStyle=orthogonalEdgeStyle;rounded=0;orthogonalLoop=1;jettySize=auto;html=1;" edge="1" parent="1" source="EAi1GCVLySvhZjh0Bgod-2" target="EAi1GCVLySvhZjh0Bgod-4">
          <mxGeometry relative="1" as="geometry" />
        </mxCell>
        <mxCell id="EAi1GCVLySvhZjh0Bgod-7" value="" style="edgeStyle=orthogonalEdgeStyle;rounded=0;orthogonalLoop=1;jettySize=auto;html=1;" edge="1" parent="1" source="EAi1GCVLySvhZjh0Bgod-2">
          <mxGeometry relative="1" as="geometry">
            <mxPoint x="130" y="370" as="targetPoint" />
          </mxGeometry>
        </mxCell>
        <mxCell id="EAi1GCVLySvhZjh0Bgod-2" value="Se a data do evento for &amp;lt; que 11" style="rhombus;whiteSpace=wrap;html=1;" vertex="1" parent="1">
          <mxGeometry x="50" y="140" width="160" height="170" as="geometry" />
        </mxCell>
        <mxCell id="EAi1GCVLySvhZjh0Bgod-13" value="" style="edgeStyle=orthogonalEdgeStyle;rounded=0;orthogonalLoop=1;jettySize=auto;html=1;" edge="1" parent="1" source="EAi1GCVLySvhZjh0Bgod-4" target="EAi1GCVLySvhZjh0Bgod-12">
          <mxGeometry relative="1" as="geometry" />
        </mxCell>
        <mxCell id="EAi1GCVLySvhZjh0Bgod-4" value="Cadastro fora da data limite." style="shape=display;whiteSpace=wrap;html=1;" vertex="1" parent="1">
          <mxGeometry x="240" y="197.5" width="180" height="55" as="geometry" />
        </mxCell>
        <mxCell id="EAi1GCVLySvhZjh0Bgod-18" value="" style="edgeStyle=orthogonalEdgeStyle;rounded=0;orthogonalLoop=1;jettySize=auto;html=1;" edge="1" parent="1" source="EAi1GCVLySvhZjh0Bgod-8" target="EAi1GCVLySvhZjh0Bgod-17">
          <mxGeometry relative="1" as="geometry" />
        </mxCell>
        <mxCell id="EAi1GCVLySvhZjh0Bgod-8" value="Se a idade for &amp;lt; que 18 anos" style="rhombus;whiteSpace=wrap;html=1;" vertex="1" parent="1">
          <mxGeometry x="40" y="370" width="180" height="180" as="geometry" />
        </mxCell>
        <mxCell id="EAi1GCVLySvhZjh0Bgod-12" value="FIM" style="ellipse;whiteSpace=wrap;html=1;" vertex="1" parent="1">
          <mxGeometry x="550" y="185" width="80" height="80" as="geometry" />
        </mxCell>
        <mxCell id="EAi1GCVLySvhZjh0Bgod-16" value="" style="edgeStyle=orthogonalEdgeStyle;rounded=0;orthogonalLoop=1;jettySize=auto;html=1;" edge="1" parent="1" source="EAi1GCVLySvhZjh0Bgod-14" target="EAi1GCVLySvhZjh0Bgod-15">
          <mxGeometry relative="1" as="geometry" />
        </mxCell>
        <mxCell id="EAi1GCVLySvhZjh0Bgod-14" value="Idade não permitida" style="shape=display;whiteSpace=wrap;html=1;" vertex="1" parent="1">
          <mxGeometry x="220" y="432.5" width="180" height="55" as="geometry" />
        </mxCell>
        <mxCell id="EAi1GCVLySvhZjh0Bgod-15" value="FIM" style="ellipse;whiteSpace=wrap;html=1;" vertex="1" parent="1">
          <mxGeometry x="530" y="420" width="80" height="80" as="geometry" />
        </mxCell>
        <mxCell id="EAi1GCVLySvhZjh0Bgod-20" value="" style="edgeStyle=orthogonalEdgeStyle;rounded=0;orthogonalLoop=1;jettySize=auto;html=1;" edge="1" parent="1" source="EAi1GCVLySvhZjh0Bgod-17" target="EAi1GCVLySvhZjh0Bgod-19">
          <mxGeometry relative="1" as="geometry" />
        </mxCell>
        <mxCell id="EAi1GCVLySvhZjh0Bgod-22" value="" style="edgeStyle=orthogonalEdgeStyle;rounded=0;orthogonalLoop=1;jettySize=auto;html=1;" edge="1" parent="1" source="EAi1GCVLySvhZjh0Bgod-17" target="EAi1GCVLySvhZjh0Bgod-21">
          <mxGeometry relative="1" as="geometry" />
        </mxCell>
        <mxCell id="EAi1GCVLySvhZjh0Bgod-17" value="Se a quantidade de participantes for &quot;&amp;gt;=100&quot;" style="rhombus;whiteSpace=wrap;html=1;" vertex="1" parent="1">
          <mxGeometry x="40" y="630" width="180" height="180" as="geometry" />
        </mxCell>
        <mxCell id="EAi1GCVLySvhZjh0Bgod-25" value="" style="edgeStyle=orthogonalEdgeStyle;rounded=0;orthogonalLoop=1;jettySize=auto;html=1;" edge="1" parent="1" source="EAi1GCVLySvhZjh0Bgod-19" target="EAi1GCVLySvhZjh0Bgod-23">
          <mxGeometry relative="1" as="geometry" />
        </mxCell>
        <mxCell id="EAi1GCVLySvhZjh0Bgod-19" value="Cadastro realizado." style="shape=display;whiteSpace=wrap;html=1;" vertex="1" parent="1">
          <mxGeometry x="280" y="692.5" width="180" height="55" as="geometry" />
        </mxCell>
        <mxCell id="EAi1GCVLySvhZjh0Bgod-24" value="" style="edgeStyle=orthogonalEdgeStyle;rounded=0;orthogonalLoop=1;jettySize=auto;html=1;" edge="1" parent="1" source="EAi1GCVLySvhZjh0Bgod-21" target="EAi1GCVLySvhZjh0Bgod-23">
          <mxGeometry relative="1" as="geometry" />
        </mxCell>
        <mxCell id="EAi1GCVLySvhZjh0Bgod-21" value="Cadastro negado." style="shape=display;whiteSpace=wrap;html=1;" vertex="1" parent="1">
          <mxGeometry x="40" y="860" width="180" height="55" as="geometry" />
        </mxCell>
        <mxCell id="EAi1GCVLySvhZjh0Bgod-23" value="FIM" style="ellipse;whiteSpace=wrap;html=1;aspect=fixed;" vertex="1" parent="1">
          <mxGeometry x="290" y="800" width="80" height="80" as="geometry" />
        </mxCell>
      </root>
    </mxGraphModel>
  </diagram>
</mxfile>
